# xmcd
#
# Track frame offsets: 
#        150
#        13277
#        27474
#        39430
#        54480
#        71184
#        98030
#
# Disc length: 1659 seconds
#
# Revision: 0
# Processed by: cddbd v1.5.2PL0 Copyright (c) Steve Scherf et al.
# Submitted via: ExactAudioCopy v1.0b1
#
DISCID=5c067907
DTITLE=Hendrik Röver - No temáis por mí [CD Extra)
DYEAR=2010
DGENRE=Bluegrass
TTITLE0=Déjalo
TTITLE1=Sin ahogar
TTITLE2=Mentiras
TTITLE3=Peñacabarga breakdown
TTITLE4=Empezar
TTITLE5=Adiós
TTITLE6=Vídeo Déjalo
EXTD=
EXTT0=
EXTT1=
EXTT2=
EXTT3=
EXTT4=
EXTT5=
EXTT6=
PLAYORDER=
